<svg width="59" height="52" viewBox="0 0 59 52" fill="none" xmlns="http://www.w3.org/2000/svg"><path d="M29.3312 1.19102e-06C31.8779 1.19102e-06 34.2512 1.24533 35.7046 3.32533L35.9846 3.752L57.6219 39.88C58.2795 41.0189 58.6372 42.306 58.6617 43.6209C58.6862 44.9357 58.3766 46.2353 57.7618 47.3978C57.1471 48.5604 56.2474 49.5479 55.147 50.2679C54.0465 50.988 52.7813 51.4169 51.4699 51.5147L50.9499 51.536H7.68323C6.37044 51.5212 5.08279 51.1741 3.94048 50.527C2.79817 49.8798 1.83844 48.9538 1.15088 47.8354C0.463308 46.717 0.0703199 45.4426 0.00859435 44.1312C-0.0531312 42.8197 0.218418 41.5141 0.797895 40.336L1.0619 39.8427L22.6886 3.74133C23.3802 2.59879 24.3551 1.65411 25.5188 0.998677C26.6825 0.343247 27.9956 -0.000738685 29.3312 1.19102e-06ZM29.3579 35.5467L29.0192 35.5653C28.3711 35.6424 27.7737 35.9545 27.3403 36.4426C26.9069 36.9306 26.6675 37.5606 26.6675 38.2133C26.6675 38.866 26.9069 39.4961 27.3403 39.9841C27.7737 40.4721 28.3711 40.7842 29.0192 40.8613L29.3312 40.88L29.6699 40.8613C30.318 40.7842 30.9154 40.4721 31.3488 39.9841C31.7822 39.4961 32.0216 38.866 32.0216 38.2133C32.0216 37.5606 31.7822 36.9306 31.3488 36.4426C30.9154 35.9545 30.318 35.6424 29.6699 35.5653L29.3579 35.5467ZM29.3312 16.88C28.6781 16.8801 28.0477 17.1199 27.5596 17.5539C27.0715 17.9879 26.7596 18.586 26.6832 19.2347L26.6646 19.5467V30.2133L26.6832 30.5253C26.7603 31.1735 27.0724 31.7708 27.5605 32.2042C28.0485 32.6376 28.6785 32.877 29.3312 32.877C29.9839 32.877 30.614 32.6376 31.102 32.2042C31.59 31.7708 31.9021 31.1735 31.9792 30.5253L31.9979 30.2133V19.5467L31.9792 19.2347C31.9028 18.586 31.591 17.9879 31.1029 17.5539C30.6148 17.1199 29.9844 16.8801 29.3312 16.88Z" fill="#FB6A00"/></svg>